<?xml version="1.0" encoding="utf-8"?>
<!-- Generator: Adobe Illustrator 25.0.1, SVG Export Plug-In . SVG Version: 6.00 Build 0)  -->
<svg version="1.1" id="Layer_1" xmlns="http://www.w3.org/2000/svg" xmlns:xlink="http://www.w3.org/1999/xlink" x="0px" y="0px"
	 width="16px" height="16px" viewBox="0 0 16 16" enable-background="new 0 0 16 16" xml:space="preserve">
<g>
	<polygon fill-rule="evenodd" clip-rule="evenodd" fill="#82BFF2" fill-opacity="0.7" points="0.9,15.9 15.9,15.9 15.9,8.9 0.9,8.9 
			"/>
	<polygon fill-rule="evenodd" clip-rule="evenodd" fill="#9AA7B0" fill-opacity="0.8" points="6.9,0.9 2.9,4.9 6.9,4.9 	"/>
	<polygon fill-rule="evenodd" clip-rule="evenodd" fill="#9AA7B0" fill-opacity="0.8" points="7.9,0.9 7.9,5.9 2.9,5.9 2.9,7.9 
		12.9,7.9 12.9,0.9 	"/>
	<path fill-rule="evenodd" clip-rule="evenodd" fill="#231F20" fill-opacity="0.7" d="M2,15v-5h2.1c0.6,0,1,0.2,1.3,0.5
		c0.3,0.3,0.4,0.7,0.4,1.1v0c0,0.8-0.4,1.3-1,1.6L6,15H4.8l-1-1.6H3V15H2z M3,12.4h1c0.5,0,0.8-0.3,0.8-0.7v0C4.8,11.2,4.5,11,4,11
		H3V12.4z"/>
	<polygon fill-rule="evenodd" clip-rule="evenodd" fill="#231F20" fill-opacity="0.7" points="8,10.9 6.5,10.9 6.5,9.9 10.5,9.9 
		10.5,10.9 9,10.9 9,14.9 8,14.9 	"/>
	<path fill-rule="evenodd" clip-rule="evenodd" fill="#231F20" fill-opacity="0.7" d="M12.2,11.4c0-0.4,0.3-0.5,0.8-0.5
		c0,0,0.4,0,1.2,0v-1c-0.7,0-1.1,0-1.1,0c-1.1,0-1.9,0.5-1.9,1.4s0.4,1.2,1.5,1.5c0.8,0.2,1,0.3,1,0.6s-0.4,0.5-1,0.5
		c0,0-0.4,0-1.2,0v1c0.8,0,1.2,0,1.2,0c2,0,2-1,2-1.5c0-0.6-0.5-1.1-1.3-1.4S12.2,11.8,12.2,11.4z"/>
</g>
</svg>
